<svg xmlns="http://www.w3.org/2000/svg" viewBox="0 0 54 54" height="54"
     width="54">

    <g>
        <path
            d="M19.125 20.25h15.75a1.1475 1.1475 0 0 0 0.9 -0.45 1.125 1.125 0 0 0 0.225 -0.99 9.4725 9.4725 0 0 0 -5.8725 -6.39 0.5625 0.5625 0 0 1 -0.36 -0.45 0.54 0.54 0 0 1 0.225 -0.54 5.0625 5.0625 0 1 0 -5.8950000000000005 0 0.495 0.495 0 0 1 0.225 0.54 0.5625 0.5625 0 0 1 -0.36 0.45A9.4725 9.4725 0 0 0 18 18.81a1.125 1.125 0 0 0 0.18 0.99 1.1475 1.1475 0 0 0 0.945 0.45Z"
            fill="#0da80c" stroke-width="1"></path>
        <path
            d="M54 40.185A9.4725 9.4725 0 0 0 48.0825 33.75a0.5625 0.5625 0 0 1 -0.36 -0.45 0.54 0.54 0 0 1 0.225 -0.54 5.0625 5.0625 0 1 0 -5.8950000000000005 0 0.495 0.495 0 0 1 0.225 0.54 0.5625 0.5625 0 0 1 -0.36 0.45 8.145 8.145 0 0 0 -2.25 1.1925000000000001 0.54 0.54 0 0 0 -0.225 0.5625L40.5 41.175000000000004a0.585 0.585 0 0 0 0.5625 0.45h11.8125a1.1475 1.1475 0 0 0 0.9 -0.45 1.125 1.125 0 0 0 0.225 -0.99Z"
            fill="#0da80c" stroke-width="1"></path>
        <path
            d="M14.580000000000002 35.550000000000004a0.54 0.54 0 0 0 -0.225 -0.5625 8.145 8.145 0 0 0 -2.25 -1.1925000000000001 0.5625 0.5625 0 0 1 -0.36 -0.45 0.54 0.54 0 0 1 0.225 -0.54 5.0625 5.0625 0 1 0 -5.8950000000000005 0 0.495 0.495 0 0 1 0.225 0.54 0.5625 0.5625 0 0 1 -0.36 0.45A9.4725 9.4725 0 0 0 0 40.185a1.125 1.125 0 0 0 0.18 0.99 1.1475 1.1475 0 0 0 0.9 0.45h11.767500000000002a0.585 0.585 0 0 0 0.6525 -0.45Z"
            fill="#0da80c" stroke-width="1"></path>
        <path
            d="M35.2575 26.55a2.25 2.25 0 0 0 -2.25 -1.8H20.9475a2.25 2.25 0 0 0 -2.25 1.8l-4.68 22.5a2.25 2.25 0 0 0 0.45 1.8675 2.25 2.25 0 0 0 1.7550000000000001 0.8325h21.464999999999996a2.25 2.25 0 0 0 1.7550000000000001 -0.8325 2.25 2.25 0 0 0 0.45 -1.8675Zm-3.0825000000000005 20.25a1.1025 1.1025 0 0 1 -0.855 0.3825h-8.64a1.1025 1.1025 0 0 1 -0.855 -0.3825 1.1025 1.1025 0 0 1 -0.27 -0.9l0.8099999999999999 -5.625a1.1025 1.1025 0 0 1 1.1025 -0.9675h7.065a1.1025 1.1025 0 0 1 1.1025 0.9675l0.8099999999999999 5.625a1.1025 1.1025 0 0 1 -0.27 0.9675Z"
            fill="#0da80c" stroke-width="1"></path>
    </g>
</svg>
